<svg width="24" height="24" viewBox="0 0 24 24" fill="none" xmlns="http://www.w3.org/2000/svg">
<path d="M15.2535 8.33686C15.5209 8.60427 15.8626 8.73798 16.2786 8.73798C16.6946 8.73798 17.0363 8.60427 17.3037 8.33686C17.5711 8.06944 17.7048 7.72775 17.7048 7.31177C17.7048 6.8958 17.5711 6.5541 17.3037 6.28669C17.0363 6.01928 16.6946 5.88557 16.2786 5.88557C15.8626 5.88557 15.5209 6.01928 15.2535 6.28669C14.9861 6.5541 14.8524 6.8958 14.8524 7.31177C14.8524 7.72775 14.9861 8.06944 15.2535 8.33686ZM15.2535 16.8941C15.5209 17.1615 15.8626 17.2952 16.2786 17.2952C16.6946 17.2952 17.0363 17.1615 17.3037 16.8941C17.5711 16.6267 17.7048 16.285 17.7048 15.869C17.7048 15.453 17.5711 15.1113 17.3037 14.8439C17.0363 14.5765 16.6946 14.4428 16.2786 14.4428C15.8626 14.4428 15.5209 14.5765 15.2535 14.8439C14.9861 15.1113 14.8524 15.453 14.8524 15.869C14.8524 16.285 14.9861 16.6267 15.2535 16.8941ZM10.9749 12.6155C11.2423 12.8829 11.584 13.0166 12 13.0166C12.416 13.0166 12.7577 12.8829 13.0251 12.6155C13.2925 12.3481 13.4262 12.0064 13.4262 11.5904C13.4262 11.1744 13.2925 10.8327 13.0251 10.5653C12.7577 10.2979 12.416 10.1642 12 10.1642C11.584 10.1642 11.2423 10.2979 10.9749 10.5653C10.7075 10.8327 10.5738 11.1744 10.5738 11.5904C10.5738 12.0064 10.7075 12.3481 10.9749 12.6155ZM6.69631 8.33686C6.96372 8.60427 7.30542 8.73798 7.72139 8.73798C8.13737 8.73798 8.47906 8.60427 8.74648 8.33686C9.01389 8.06944 9.1476 7.72775 9.1476 7.31177C9.1476 6.8958 9.01389 6.5541 8.74648 6.28669C8.47906 6.01928 8.13737 5.88557 7.72139 5.88557C7.30542 5.88557 6.96372 6.01928 6.69631 6.28669C6.4289 6.5541 6.29519 6.8958 6.29519 7.31177C6.29519 7.72775 6.4289 8.06944 6.69631 8.33686ZM6.69631 16.8941C6.96372 17.1615 7.30542 17.2952 7.72139 17.2952C8.13737 17.2952 8.47906 17.1615 8.74648 16.8941C9.01389 16.6267 9.1476 16.285 9.1476 15.869C9.1476 15.453 9.01389 15.1113 8.74648 14.8439C8.47906 14.5765 8.13737 14.4428 7.72139 14.4428C7.30542 14.4428 6.96372 14.5765 6.69631 14.8439C6.4289 15.1113 6.29519 15.453 6.29519 15.869C6.29519 16.285 6.4289 16.6267 6.69631 16.8941ZM18.6408 3.03317C19.1459 3.03317 19.5916 3.2263 19.9778 3.61256C20.3641 3.99883 20.5572 4.44451 20.5572 4.94963V18.2311C20.5572 18.7362 20.3641 19.1819 19.9778 19.5682C19.5916 19.9545 19.1459 20.1476 18.6408 20.1476H5.35925C4.85413 20.1476 4.40844 19.9545 4.02218 19.5682C3.63592 19.1819 3.44279 18.7362 3.44279 18.2311V4.94963C3.44279 4.44451 3.63592 3.99883 4.02218 3.61256C4.40844 3.2263 4.85413 3.03317 5.35925 3.03317H18.6408Z" fill="#C5C5C5"/>
</svg>
