<svg width="24" height="24" viewBox="0 0 24 24" fill="none" xmlns="http://www.w3.org/2000/svg">
<path d="M14.7187 11.1447L13.3371 12.5263L19.8887 19.0779L18.5516 20.415L12 13.8634L5.44838 20.415L4.11132 19.0779L13.3816 9.80763C13.0251 9.09453 12.9657 8.26258 13.2034 7.31177C13.4708 6.36097 13.9759 5.51417 14.7187 4.77135C15.6398 3.85026 16.6649 3.33029 17.7939 3.21144C18.923 3.06288 19.8293 3.33029 20.5126 4.01368C21.196 4.69707 21.4634 5.61816 21.3149 6.77695C21.196 7.90603 20.6761 8.93111 19.755 9.8522C19.0122 10.595 18.1654 11.0853 17.2146 11.323C16.2638 11.5607 15.4318 11.5012 14.7187 11.1447ZM8.30079 12.8829L4.28959 8.87168C3.54678 8.12887 3.17537 7.23749 3.17537 6.19755C3.17537 5.15762 3.54678 4.26624 4.28959 3.52342L10.9749 10.1642L8.30079 12.8829Z" fill="#2E9CA3"/>
</svg>
