<svg width="24" height="24" viewBox="0 0 24 24" fill="none" xmlns="http://www.w3.org/2000/svg">
<path d="M5.35925 10.6544H18.6408L17.2146 6.37583H6.78545L5.35925 10.6544ZM16.1895 14.9776C16.4866 15.245 16.8283 15.3787 17.2146 15.3787C17.6008 15.3787 17.9277 15.245 18.1951 14.9776C18.4922 14.6805 18.6408 14.3388 18.6408 13.9525C18.6408 13.5663 18.4922 13.2394 18.1951 12.972C17.9277 12.6749 17.6008 12.5263 17.2146 12.5263C16.8283 12.5263 16.4866 12.6749 16.1895 12.972C15.9221 13.2394 15.7883 13.5663 15.7883 13.9525C15.7883 14.3388 15.9221 14.6805 16.1895 14.9776ZM5.76036 14.9776C6.05749 15.245 6.39918 15.3787 6.78545 15.3787C7.17171 15.3787 7.49855 15.245 7.76596 14.9776C8.06309 14.6805 8.21165 14.3388 8.21165 13.9525C8.21165 13.5663 8.06309 13.2394 7.76596 12.972C7.49855 12.6749 7.17171 12.5263 6.78545 12.5263C6.39918 12.5263 6.05749 12.6749 5.76036 12.972C5.49295 13.2394 5.35925 13.5663 5.35925 13.9525C5.35925 14.3388 5.49295 14.6805 5.76036 14.9776ZM18.5962 5.88557L20.5572 11.5904V19.2117C20.5572 19.4791 20.4681 19.7019 20.2898 19.8802C20.1115 20.0585 19.8887 20.1476 19.6213 20.1476H18.6408C18.3733 20.1476 18.1505 20.0585 17.9722 19.8802C17.7939 19.7019 17.7048 19.4791 17.7048 19.2117V18.2311H6.29519V19.2117C6.29519 19.4791 6.20605 19.7019 6.02778 19.8802C5.8495 20.0585 5.62666 20.1476 5.35925 20.1476H4.37873C4.11132 20.1476 3.88847 20.0585 3.7102 19.8802C3.53192 19.7019 3.44279 19.4791 3.44279 19.2117V11.5904L5.40381 5.88557C5.58209 5.26161 6.04263 4.94963 6.78545 4.94963H17.2146C17.9574 4.94963 18.4179 5.26161 18.5962 5.88557Z" fill="#2E9CA3"/>
</svg>
