<svg width="24" height="24" viewBox="0 0 24 24" fill="none" xmlns="http://www.w3.org/2000/svg">
<g id="icon/la:swimmer">
<path id="Vector" d="M17.6246 8.25C16.9293 8.25276 16.2632 8.53021 15.7715 9.0219C15.2798 9.51358 15.0024 10.1797 14.9996 10.875C14.9996 12.3165 16.1831 13.5 17.6246 13.5C19.0661 13.5 20.2496 12.3165 20.2496 10.875C20.2496 9.4335 19.0661 8.25 17.6246 8.25ZM10.2889 8.27325C10.0095 8.29086 9.74105 8.38849 9.51562 8.5545L5.55412 11.3903L6.44513 12.6097L10.3826 9.77325L12.0934 11.742L6.53888 16.4528C6.84338 16.4798 7.16888 16.5 7.49963 16.5C8.00663 16.5 8.49263 16.4475 8.97638 16.359L13.0541 12.867L14.5781 14.625C15.1391 14.4729 15.7107 14.3631 16.2881 14.2965L11.5076 8.78925C11.3594 8.61344 11.1718 8.47508 10.96 8.38542C10.7482 8.29576 10.5183 8.25733 10.2889 8.27325ZM17.6246 9.75C18.2546 9.75 18.7496 10.245 18.7496 10.875C18.7496 11.508 18.2546 12 17.6246 12C17.4763 12.002 17.3291 11.9743 17.1917 11.9185C17.0543 11.8627 16.9295 11.7799 16.8246 11.675C16.7198 11.5701 16.637 11.4453 16.5812 11.3079C16.5253 11.1705 16.4976 11.0233 16.4996 10.875C16.4996 10.245 16.9916 9.75 17.6246 9.75ZM17.2496 15C15.4211 15 13.8191 15.612 12.2576 16.1722C10.6961 16.731 9.17513 17.25 7.49963 17.25C3.37763 17.25 1.26488 15.2108 1.26488 15.2108L0.234375 16.29C0.234375 16.29 2.86238 18.75 7.49963 18.75C9.48338 18.75 11.1791 18.1433 12.7496 17.5778C14.3201 17.013 15.7616 16.5 17.2496 16.5C20.2264 16.5 22.7576 18.5858 22.7576 18.5858L23.7416 17.4142C23.7416 17.4142 20.9059 15 17.2496 15Z" fill="#C5C5C5"/>
</g>
</svg>
