<svg width="24" height="24" viewBox="0 0 24 24" fill="none" xmlns="http://www.w3.org/2000/svg">
<path d="M13.3371 20.5487C12.9805 20.9053 12.5348 21.0835 12 21.0835C11.4652 21.0835 11.0046 20.9053 10.6184 20.5487C10.2618 20.1625 10.0835 19.7168 10.0835 19.2117H13.8719C13.8719 19.7465 13.6936 20.1922 13.3371 20.5487ZM17.7048 10.6544V15.3787L19.6213 17.2952V18.2311H4.37873V17.2952L6.29519 15.3787V10.6544C6.29519 9.16881 6.6666 7.87631 7.40941 6.77695C8.18194 5.67758 9.23673 4.96448 10.5738 4.63765V3.96911C10.5738 3.58285 10.7075 3.25601 10.9749 2.9886C11.2423 2.69147 11.584 2.54291 12 2.54291C12.416 2.54291 12.7577 2.69147 13.0251 2.9886C13.2925 3.25601 13.4262 3.58285 13.4262 3.96911V4.63765C14.7633 4.96448 15.8032 5.67758 16.546 6.77695C17.3185 7.87631 17.7048 9.16881 17.7048 10.6544ZM19.5767 10.1642C19.5173 9.09453 19.1607 7.96545 18.507 6.77695C17.8534 5.58845 17.0957 4.68221 16.234 4.05825L17.5711 2.72119C20.0372 4.62279 21.3446 7.10379 21.4932 10.1642H19.5767ZM7.81053 4.05825C6.94887 4.68221 6.17634 5.58845 5.49295 6.77695C4.83928 7.96545 4.48273 9.09453 4.4233 10.1642H2.50684C2.6554 7.10379 3.96276 4.62279 6.4289 2.72119L7.81053 4.05825Z" fill="#2E9CA3"/>
</svg>
