<svg width="123" height="41" viewBox="0 0 123 41" fill="none" xmlns="http://www.w3.org/2000/svg">
<path d="M5.82349 3.06839V23.0547H0.955036V3.06839H5.82349ZM29.6226 6.99732C31.5966 6.99732 33.1624 7.5952 34.3202 8.79096C35.497 9.98672 36.0854 11.6475 36.0854 13.7733V23.0547H31.2454V14.4281C31.2454 13.4032 30.9702 12.6155 30.4198 12.0651C29.8883 11.4957 29.1481 11.211 28.1991 11.211C27.2501 11.211 26.5003 11.4957 25.9499 12.0651C25.4185 12.6155 25.1527 13.4032 25.1527 14.4281V23.0547H20.3128V14.4281C20.3128 13.4032 20.0375 12.6155 19.4871 12.0651C18.9557 11.4957 18.2154 11.211 17.2664 11.211C16.3174 11.211 15.5677 11.4957 15.0172 12.0651C14.4858 12.6155 14.2201 13.4032 14.2201 14.4281V23.0547H9.35161V7.16815H14.2201V9.16108C14.7136 8.49677 15.3589 7.97481 16.1561 7.5952C16.9532 7.19662 17.8548 6.99732 18.8608 6.99732C20.0565 6.99732 21.1194 7.25356 22.0495 7.76603C22.9985 8.27849 23.7387 9.00924 24.2702 9.95826C24.8206 9.08516 25.5703 8.3734 26.5193 7.82297C27.4683 7.27254 28.5028 6.99732 29.6226 6.99732ZM46.7218 23.2825C45.1654 23.2825 43.7609 22.9503 42.5082 22.286C41.2745 21.6217 40.297 20.6727 39.5757 19.4389C38.8735 18.2052 38.5223 16.7627 38.5223 15.1114C38.5223 13.4791 38.8829 12.0461 39.6042 10.8124C40.3254 9.55967 41.3124 8.60116 42.5651 7.93685C43.8178 7.27254 45.2224 6.94038 46.7788 6.94038C48.3351 6.94038 49.7397 7.27254 50.9924 7.93685C52.2451 8.60116 53.2321 9.55967 53.9533 10.8124C54.6746 12.0461 55.0352 13.4791 55.0352 15.1114C55.0352 16.7437 54.6651 18.1862 53.9249 19.4389C53.2036 20.6727 52.2071 21.6217 50.9355 22.286C49.6828 22.9503 48.2782 23.2825 46.7218 23.2825ZM46.7218 19.0688C47.6519 19.0688 48.4395 18.7272 49.0849 18.0439C49.7492 17.3606 50.0813 16.3831 50.0813 15.1114C50.0813 13.8397 49.7587 12.8622 49.1133 12.179C48.487 11.4957 47.7088 11.154 46.7788 11.154C45.8297 11.154 45.0421 11.4957 44.4157 12.179C43.7894 12.8433 43.4762 13.8208 43.4762 15.1114C43.4762 16.3831 43.7799 17.3606 44.3872 18.0439C45.0136 18.7272 45.7918 19.0688 46.7218 19.0688ZM62.4865 9.41731C62.942 8.67708 63.5968 8.0792 64.4509 7.62367C65.3051 7.16814 66.2825 6.94038 67.3834 6.94038C68.693 6.94038 69.8793 7.27254 70.9422 7.93685C72.0051 8.60116 72.8402 9.55018 73.4476 10.7839C74.074 12.0176 74.3871 13.4506 74.3871 15.0829C74.3871 16.7153 74.074 18.1578 73.4476 19.4105C72.8402 20.6442 72.0051 21.6027 70.9422 22.286C69.8793 22.9503 68.693 23.2825 67.3834 23.2825C66.2636 23.2825 65.2861 23.0642 64.4509 22.6276C63.6158 22.1721 62.961 21.5742 62.4865 20.834V23.0547H57.618V1.98651H62.4865V9.41731ZM69.4333 15.0829C69.4333 13.8682 69.0916 12.9192 68.4083 12.2359C67.744 11.5336 66.9184 11.1825 65.9314 11.1825C64.9634 11.1825 64.1378 11.5336 63.4545 12.2359C62.7902 12.9382 62.458 13.8967 62.458 15.1114C62.458 16.3262 62.7902 17.2847 63.4545 17.9869C64.1378 18.6892 64.9634 19.0403 65.9314 19.0403C66.8994 19.0403 67.725 18.6892 68.4083 17.9869C69.0916 17.2657 69.4333 16.2977 69.4333 15.0829ZM79.3897 5.51685C78.5356 5.51685 77.8333 5.27011 77.2829 4.77662C76.7515 4.26415 76.4857 3.6378 76.4857 2.89757C76.4857 2.13836 76.7515 1.512 77.2829 1.01852C77.8333 0.506046 78.5356 0.249812 79.3897 0.249812C80.2249 0.249812 80.9081 0.506046 81.4396 1.01852C81.99 1.512 82.2652 2.13836 82.2652 2.89757C82.2652 3.6378 81.99 4.26415 81.4396 4.77662C80.9081 5.27011 80.2249 5.51685 79.3897 5.51685ZM81.8097 7.16815V23.0547H76.9413V7.16815H81.8097ZM90.2063 1.98651V23.0547H85.3378V1.98651H90.2063ZM92.7664 15.0829C92.7664 13.4506 93.0701 12.0176 93.6775 10.7839C94.3038 9.55018 95.1484 8.60116 96.2113 7.93685C97.2742 7.27254 98.4605 6.94038 99.7702 6.94038C100.89 6.94038 101.867 7.16814 102.703 7.62367C103.557 8.0792 104.212 8.67708 104.667 9.41731V7.16815H109.536V23.0547H104.667V20.8055C104.193 21.5458 103.528 22.1436 102.674 22.5992C101.839 23.0547 100.862 23.2825 99.7417 23.2825C98.451 23.2825 97.2742 22.9503 96.2113 22.286C95.1484 21.6027 94.3038 20.6442 93.6775 19.4105C93.0701 18.1578 92.7664 16.7153 92.7664 15.0829ZM104.667 15.1114C104.667 13.8967 104.325 12.9382 103.642 12.2359C102.978 11.5336 102.162 11.1825 101.194 11.1825C100.226 11.1825 99.4 11.5336 98.7167 12.2359C98.0524 12.9192 97.7203 13.8682 97.7203 15.0829C97.7203 16.2977 98.0524 17.2657 98.7167 17.9869C99.4 18.6892 100.226 19.0403 101.194 19.0403C102.162 19.0403 102.978 18.6892 103.642 17.9869C104.325 17.2847 104.667 16.3262 104.667 15.1114ZM117.926 9.8159C118.496 8.94281 119.207 8.25951 120.061 7.76603C120.916 7.25356 121.865 6.99732 122.908 6.99732V12.1505H121.57C120.356 12.1505 119.445 12.4162 118.837 12.9477C118.23 13.4601 117.926 14.3712 117.926 15.6808V23.0547H113.058V7.16815H117.926V9.8159ZM1.74095 36.0802C1.74095 35.3058 1.91937 34.6111 2.2762 33.9962C2.64062 33.3812 3.13032 32.9029 3.74528 32.5613C4.36783 32.212 5.04733 32.0374 5.78377 32.0374C6.62649 32.0374 7.37432 32.2462 8.02724 32.6637C8.68776 33.0737 9.16606 33.6583 9.46216 34.4175H7.90197C7.69698 34 7.41228 33.6887 7.04786 33.4837C6.68343 33.2787 6.26207 33.1762 5.78377 33.1762C5.25991 33.1762 4.79299 33.2939 4.38302 33.5292C3.97304 33.7646 3.65038 34.1025 3.41502 34.5428C3.18726 34.9831 3.07337 35.4956 3.07337 36.0802C3.07337 36.6648 3.18726 37.1773 3.41502 37.6176C3.65038 38.058 3.97304 38.3996 4.38302 38.6426C4.79299 38.8779 5.25991 38.9956 5.78377 38.9956C6.26207 38.9956 6.68343 38.8931 7.04786 38.6881C7.41228 38.4831 7.69698 38.1718 7.90197 37.7543H9.46216C9.16606 38.5135 8.68776 39.0981 8.02724 39.5081C7.37432 39.918 6.62649 40.123 5.78377 40.123C5.03974 40.123 4.36024 39.9522 3.74528 39.6105C3.13032 39.2613 2.64062 38.7792 2.2762 38.1642C1.91937 37.5493 1.74095 36.8546 1.74095 36.0802ZM13.7035 40.1572C13.1114 40.1572 12.5761 40.0243 12.0978 39.7586C11.6195 39.4853 11.2437 39.1057 10.9704 38.6198C10.6971 38.1263 10.5604 37.5569 10.5604 36.9115C10.5604 36.2738 10.7009 35.7082 10.9818 35.2147C11.2627 34.7212 11.6461 34.3416 12.132 34.0759C12.6179 33.8102 13.1607 33.6773 13.7605 33.6773C14.3603 33.6773 14.9031 33.8102 15.389 34.0759C15.8749 34.3416 16.2583 34.7212 16.5392 35.2147C16.8201 35.7082 16.9606 36.2738 16.9606 36.9115C16.9606 37.5493 16.8163 38.1149 16.5278 38.6084C16.2393 39.1019 15.8445 39.4853 15.3435 39.7586C14.85 40.0243 14.3033 40.1572 13.7035 40.1572ZM13.7035 39.0297C14.0376 39.0297 14.3489 38.95 14.6374 38.7906C14.9335 38.6312 15.1726 38.392 15.3548 38.0731C15.5371 37.7543 15.6282 37.3671 15.6282 36.9115C15.6282 36.456 15.5408 36.0726 15.3662 35.7613C15.1916 35.4425 14.96 35.2033 14.6715 35.0439C14.383 34.8844 14.0718 34.8047 13.7377 34.8047C13.4037 34.8047 13.0924 34.8844 12.8039 35.0439C12.523 35.2033 12.299 35.4425 12.132 35.7613C11.965 36.0726 11.8814 36.456 11.8814 36.9115C11.8814 37.5872 12.0523 38.1111 12.3939 38.4831C12.7431 38.8475 13.1797 39.0297 13.7035 39.0297ZM19.5422 34.6908C19.732 34.372 19.9826 34.1252 20.2938 33.9506C20.6127 33.7684 20.9885 33.6773 21.4213 33.6773V35.0211H21.091C20.5823 35.0211 20.1952 35.1502 19.9294 35.4083C19.6713 35.6664 19.5422 36.1144 19.5422 36.7521V40.0547H18.244V33.7798H19.5422V34.6908ZM23.9129 34.6908C24.1027 34.372 24.3532 34.1252 24.6645 33.9506C24.9834 33.7684 25.3592 33.6773 25.7919 33.6773V35.0211H25.4617C24.953 35.0211 24.5658 35.1502 24.3001 35.4083C24.042 35.6664 23.9129 36.1144 23.9129 36.7521V40.0547H22.6146V33.7798H23.9129V34.6908ZM32.7363 36.7635C32.7363 36.9989 32.7212 37.2114 32.6908 37.4012H27.8964C27.9343 37.9023 28.1203 38.3047 28.4544 38.6084C28.7884 38.9121 29.1984 39.0639 29.6843 39.0639C30.3828 39.0639 30.8763 38.7716 31.1648 38.187H32.5655C32.3757 38.764 32.0303 39.2385 31.5292 39.6105C31.0357 39.975 30.4207 40.1572 29.6843 40.1572C29.0845 40.1572 28.5455 40.0243 28.0672 39.7586C27.5965 39.4853 27.2245 39.1057 26.9511 38.6198C26.6854 38.1263 26.5526 37.5569 26.5526 36.9115C26.5526 36.2662 26.6816 35.7006 26.9398 35.2147C27.2055 34.7212 27.5737 34.3416 28.0444 34.0759C28.5227 33.8102 29.0693 33.6773 29.6843 33.6773C30.2765 33.6773 30.8042 33.8064 31.2673 34.0645C31.7304 34.3226 32.091 34.687 32.3491 35.1578C32.6073 35.6209 32.7363 36.1561 32.7363 36.7635ZM31.3812 36.3535C31.3736 35.8752 31.2027 35.4918 30.8687 35.2033C30.5346 34.9148 30.1209 34.7706 29.6274 34.7706C29.1794 34.7706 28.796 34.9148 28.4772 35.2033C28.1583 35.4842 27.9685 35.8676 27.9078 36.3535H31.3812ZM35.5286 34.8389V38.3123C35.5286 38.5476 35.5817 38.7185 35.688 38.8248C35.8019 38.9235 35.9917 38.9728 36.2574 38.9728H37.0546V40.0547H36.0297C35.4451 40.0547 34.9971 39.918 34.6859 39.6447C34.3746 39.3714 34.219 38.9273 34.219 38.3123V34.8389H33.4787V33.7798H34.219V32.2196H35.5286V33.7798H37.0546V34.8389H35.5286ZM40.973 40.1572C40.3808 40.1572 39.8455 40.0243 39.3672 39.7586C38.8889 39.4853 38.5131 39.1057 38.2398 38.6198C37.9665 38.1263 37.8298 37.5569 37.8298 36.9115C37.8298 36.2738 37.9703 35.7082 38.2512 35.2147C38.5321 34.7212 38.9155 34.3416 39.4014 34.0759C39.8873 33.8102 40.4301 33.6773 41.0299 33.6773C41.6297 33.6773 42.1725 33.8102 42.6584 34.0759C43.1443 34.3416 43.5277 34.7212 43.8086 35.2147C44.0895 35.7082 44.23 36.2738 44.23 36.9115C44.23 37.5493 44.0857 38.1149 43.7972 38.6084C43.5087 39.1019 43.1139 39.4853 42.6129 39.7586C42.1194 40.0243 41.5727 40.1572 40.973 40.1572ZM40.973 39.0297C41.307 39.0297 41.6183 38.95 41.9068 38.7906C42.2029 38.6312 42.442 38.392 42.6242 38.0731C42.8065 37.7543 42.8976 37.3671 42.8976 36.9115C42.8976 36.456 42.8103 36.0726 42.6356 35.7613C42.461 35.4425 42.2295 35.2033 41.941 35.0439C41.6525 34.8844 41.3412 34.8047 41.0071 34.8047C40.6731 34.8047 40.3618 34.8844 40.0733 35.0439C39.7924 35.2033 39.5684 35.4425 39.4014 35.7613C39.2344 36.0726 39.1508 36.456 39.1508 36.9115C39.1508 37.5872 39.3217 38.1111 39.6633 38.4831C40.0126 38.8475 40.4491 39.0297 40.973 39.0297ZM46.8116 34.6908C47.0014 34.372 47.252 34.1252 47.5633 33.9506C47.8821 33.7684 48.2579 33.6773 48.6907 33.6773V35.0211H48.3604C47.8518 35.0211 47.4646 35.1502 47.1988 35.4083C46.9407 35.6664 46.8116 36.1144 46.8116 36.7521V40.0547H45.5134V33.7798H46.8116V34.6908ZM49.4513 36.8888C49.4513 36.2586 49.5804 35.7006 49.8385 35.2147C50.1042 34.7288 50.461 34.353 50.909 34.0873C51.3645 33.814 51.8656 33.6773 52.4122 33.6773C52.9057 33.6773 53.3347 33.776 53.6991 33.9734C54.0711 34.1632 54.3672 34.4023 54.5874 34.6908V33.7798H55.897V40.0547H54.5874V39.1209C54.3672 39.4169 54.0673 39.6637 53.6877 39.8611C53.3081 40.0585 52.8753 40.1572 52.3894 40.1572C51.8504 40.1572 51.3569 40.0205 50.909 39.7472C50.461 39.4663 50.1042 39.0791 49.8385 38.5856C49.5804 38.0845 49.4513 37.5189 49.4513 36.8888ZM54.5874 36.9115C54.5874 36.4788 54.4963 36.103 54.3141 35.7841C54.1394 35.4652 53.9079 35.2223 53.6194 35.0553C53.3309 34.8882 53.0196 34.8047 52.6855 34.8047C52.3515 34.8047 52.0402 34.8882 51.7517 35.0553C51.4632 35.2147 51.2279 35.4539 51.0456 35.7727C50.871 36.084 50.7837 36.456 50.7837 36.8888C50.7837 37.3215 50.871 37.7011 51.0456 38.0276C51.2279 38.354 51.4632 38.6046 51.7517 38.7792C52.0478 38.9462 52.3591 39.0297 52.6855 39.0297C53.0196 39.0297 53.3309 38.9462 53.6194 38.7792C53.9079 38.6122 54.1394 38.3692 54.3141 38.0504C54.4963 37.7239 54.5874 37.3443 54.5874 36.9115ZM61.8587 32.1399V40.0547H60.5605V32.1399H61.8587ZM71.1592 33.6773C71.6527 33.6773 72.093 33.7798 72.4802 33.9848C72.875 34.1898 73.1825 34.4934 73.4026 34.8958C73.6304 35.2982 73.7443 35.7841 73.7443 36.3535V40.0547H72.4574V36.5471C72.4574 35.9853 72.317 35.5563 72.0361 35.2603C71.7551 34.9566 71.3717 34.8047 70.8858 34.8047C70.4 34.8047 70.0128 34.9566 69.7243 35.2603C69.4433 35.5563 69.3029 35.9853 69.3029 36.5471V40.0547H68.016V36.5471C68.016 35.9853 67.8756 35.5563 67.5947 35.2603C67.3137 34.9566 66.9303 34.8047 66.4444 34.8047C65.9586 34.8047 65.5714 34.9566 65.2829 35.2603C65.0019 35.5563 64.8615 35.9853 64.8615 36.5471V40.0547H63.5632V33.7798H64.8615V34.4972C65.0741 34.2391 65.3436 34.0379 65.6701 33.8937C65.9965 33.7494 66.3458 33.6773 66.7178 33.6773C67.2188 33.6773 67.6668 33.7836 68.0616 33.9962C68.4564 34.2087 68.76 34.5162 68.9726 34.9186C69.1624 34.539 69.4585 34.2391 69.8609 34.0189C70.2633 33.7912 70.696 33.6773 71.1592 33.6773ZM78.1181 40.1572C77.5259 40.1572 76.9906 40.0243 76.5123 39.7586C76.034 39.4853 75.6582 39.1057 75.3849 38.6198C75.1116 38.1263 74.9749 37.5569 74.9749 36.9115C74.9749 36.2738 75.1154 35.7082 75.3963 35.2147C75.6772 34.7212 76.0606 34.3416 76.5465 34.0759C77.0324 33.8102 77.5752 33.6773 78.175 33.6773C78.7748 33.6773 79.3176 33.8102 79.8035 34.0759C80.2894 34.3416 80.6728 34.7212 80.9537 35.2147C81.2346 35.7082 81.3751 36.2738 81.3751 36.9115C81.3751 37.5493 81.2308 38.1149 80.9423 38.6084C80.6538 39.1019 80.2591 39.4853 79.758 39.7586C79.2645 40.0243 78.7178 40.1572 78.1181 40.1572ZM78.1181 39.0297C78.4521 39.0297 78.7634 38.95 79.0519 38.7906C79.348 38.6312 79.5871 38.392 79.7694 38.0731C79.9516 37.7543 80.0427 37.3671 80.0427 36.9115C80.0427 36.456 79.9554 36.0726 79.7807 35.7613C79.6061 35.4425 79.3746 35.2033 79.0861 35.0439C78.7976 34.8844 78.4863 34.8047 78.1522 34.8047C77.8182 34.8047 77.5069 34.8844 77.2184 35.0439C76.9375 35.2033 76.7135 35.4425 76.5465 35.7613C76.3795 36.0726 76.296 36.456 76.296 36.9115C76.296 37.5872 76.4668 38.1111 76.8084 38.4831C77.1577 38.8475 77.5942 39.0297 78.1181 39.0297ZM83.9567 34.7136C84.1769 34.4099 84.4768 34.1632 84.8564 33.9734C85.2436 33.776 85.6726 33.6773 86.1433 33.6773C86.6975 33.6773 87.1986 33.8102 87.6465 34.0759C88.0945 34.3416 88.4475 34.7212 88.7056 35.2147C88.9638 35.7006 89.0928 36.2586 89.0928 36.8888C89.0928 37.5189 88.9638 38.0845 88.7056 38.5856C88.4475 39.0791 88.0907 39.4663 87.6351 39.7472C87.1872 40.0205 86.6899 40.1572 86.1433 40.1572C85.6574 40.1572 85.2246 40.0623 84.845 39.8725C84.473 39.6827 84.1769 39.4397 83.9567 39.1436V40.0547H82.6585V31.6274H83.9567V34.7136ZM87.7718 36.8888C87.7718 36.456 87.6807 36.084 87.4985 35.7727C87.3238 35.4539 87.0885 35.2147 86.7924 35.0553C86.5039 34.8882 86.1926 34.8047 85.8586 34.8047C85.5321 34.8047 85.2208 34.8882 84.9247 35.0553C84.6362 35.2223 84.4009 35.4652 84.2187 35.7841C84.044 36.103 83.9567 36.4788 83.9567 36.9115C83.9567 37.3443 84.044 37.7239 84.2187 38.0504C84.4009 38.3692 84.6362 38.6122 84.9247 38.7792C85.2208 38.9462 85.5321 39.0297 85.8586 39.0297C86.1926 39.0297 86.5039 38.9462 86.7924 38.7792C87.0885 38.6046 87.3238 38.354 87.4985 38.0276C87.6807 37.7011 87.7718 37.3215 87.7718 36.8888ZM91.0372 32.9484C90.8018 32.9484 90.6044 32.8687 90.445 32.7093C90.2856 32.5499 90.2058 32.3525 90.2058 32.1171C90.2058 31.8818 90.2856 31.6844 90.445 31.5249C90.6044 31.3655 90.8018 31.2858 91.0372 31.2858C91.2649 31.2858 91.4585 31.3655 91.618 31.5249C91.7774 31.6844 91.8571 31.8818 91.8571 32.1171C91.8571 32.3525 91.7774 32.5499 91.618 32.7093C91.4585 32.8687 91.2649 32.9484 91.0372 32.9484ZM91.6749 33.7798V40.0547H90.3767V33.7798H91.6749ZM94.6777 31.6274V40.0547H93.3794V31.6274H94.6777ZM97.0427 32.9484C96.8073 32.9484 96.6099 32.8687 96.4505 32.7093C96.2911 32.5499 96.2113 32.3525 96.2113 32.1171C96.2113 31.8818 96.2911 31.6844 96.4505 31.5249C96.6099 31.3655 96.8073 31.2858 97.0427 31.2858C97.2704 31.2858 97.464 31.3655 97.6235 31.5249C97.7829 31.6844 97.8626 31.8818 97.8626 32.1171C97.8626 32.3525 97.7829 32.5499 97.6235 32.7093C97.464 32.8687 97.2704 32.9484 97.0427 32.9484ZM97.6804 33.7798V40.0547H96.3822V33.7798H97.6804ZM98.9522 36.8888C98.9522 36.2586 99.0812 35.7006 99.3394 35.2147C99.6051 34.7288 99.9619 34.353 100.41 34.0873C100.865 33.814 101.366 33.6773 101.913 33.6773C102.407 33.6773 102.836 33.776 103.2 33.9734C103.572 34.1632 103.868 34.4023 104.088 34.6908V33.7798H105.398V40.0547H104.088V39.1209C103.868 39.4169 103.568 39.6637 103.189 39.8611C102.809 40.0585 102.376 40.1572 101.89 40.1572C101.351 40.1572 100.858 40.0205 100.41 39.7472C99.9619 39.4663 99.6051 39.0791 99.3394 38.5856C99.0812 38.0845 98.9522 37.5189 98.9522 36.8888ZM104.088 36.9115C104.088 36.4788 103.997 36.103 103.815 35.7841C103.64 35.4652 103.409 35.2223 103.12 35.0553C102.832 34.8882 102.52 34.8047 102.186 34.8047C101.852 34.8047 101.541 34.8882 101.253 35.0553C100.964 35.2147 100.729 35.4539 100.547 35.7727C100.372 36.084 100.285 36.456 100.285 36.8888C100.285 37.3215 100.372 37.7011 100.547 38.0276C100.729 38.354 100.964 38.6046 101.253 38.7792C101.549 38.9462 101.86 39.0297 102.186 39.0297C102.52 39.0297 102.832 38.9462 103.12 38.7792C103.409 38.6122 103.64 38.3692 103.815 38.0504C103.997 37.7239 104.088 37.3443 104.088 36.9115ZM103.564 32.0943L101.048 33.3356V32.379L103.564 30.9897V32.0943ZM108.401 34.6908C108.591 34.372 108.842 34.1252 109.153 33.9506C109.472 33.7684 109.848 33.6773 110.28 33.6773V35.0211H109.95C109.441 35.0211 109.054 35.1502 108.789 35.4083C108.53 35.6664 108.401 36.1144 108.401 36.7521V40.0547H107.103V33.7798H108.401V34.6908ZM112.134 32.9484C111.899 32.9484 111.702 32.8687 111.542 32.7093C111.383 32.5499 111.303 32.3525 111.303 32.1171C111.303 31.8818 111.383 31.6844 111.542 31.5249C111.702 31.3655 111.899 31.2858 112.134 31.2858C112.362 31.2858 112.556 31.3655 112.715 31.5249C112.875 31.6844 112.954 31.8818 112.954 32.1171C112.954 32.3525 112.875 32.5499 112.715 32.7093C112.556 32.8687 112.362 32.9484 112.134 32.9484ZM112.772 33.7798V40.0547H111.474V33.7798H112.772ZM114.044 36.8888C114.044 36.2586 114.173 35.7006 114.431 35.2147C114.697 34.7288 115.054 34.353 115.501 34.0873C115.957 33.814 116.458 33.6773 117.005 33.6773C117.498 33.6773 117.927 33.776 118.292 33.9734C118.664 34.1632 118.96 34.4023 119.18 34.6908V33.7798H120.489V40.0547H119.18V39.1209C118.96 39.4169 118.66 39.6637 118.28 39.8611C117.901 40.0585 117.468 40.1572 116.982 40.1572C116.443 40.1572 115.949 40.0205 115.501 39.7472C115.054 39.4663 114.697 39.0791 114.431 38.5856C114.173 38.0845 114.044 37.5189 114.044 36.8888ZM119.18 36.9115C119.18 36.4788 119.089 36.103 118.907 35.7841C118.732 35.4652 118.5 35.2223 118.212 35.0553C117.923 34.8882 117.612 34.8047 117.278 34.8047C116.944 34.8047 116.633 34.8882 116.344 35.0553C116.056 35.2147 115.82 35.4539 115.638 35.7727C115.463 36.084 115.376 36.456 115.376 36.8888C115.376 37.3215 115.463 37.7011 115.638 38.0276C115.82 38.354 116.056 38.6046 116.344 38.7792C116.64 38.9462 116.952 39.0297 117.278 39.0297C117.612 39.0297 117.923 38.9462 118.212 38.7792C118.5 38.6122 118.732 38.3692 118.907 38.0504C119.089 37.7239 119.18 37.3443 119.18 36.9115Z" fill="#FDFDFD"/>
</svg>
