<svg width="25" height="26" viewBox="0 0 25 26" fill="none" xmlns="http://www.w3.org/2000/svg">
<g id="Icon/quartos">
<path id="Vector" d="M18.4428 12.0162H5.08594V6.83997C5.08741 6.31245 5.28333 5.80699 5.63091 5.43397C5.97849 5.06095 6.4495 4.8507 6.94105 4.84912H18.0717C18.5633 4.8507 19.0343 5.06095 19.3819 5.43397C19.7295 5.80699 19.9254 6.31245 19.9268 6.83997V12.0162H18.4428Z" stroke="#484848" stroke-width="2.58997" stroke-linecap="round" stroke-linejoin="round"/>
<path id="Vector_2" d="M2.86035 20.7764V15.202C2.86268 14.3579 3.17614 13.5492 3.73228 12.9523C4.28842 12.3555 5.04204 12.0191 5.82853 12.0166H19.1853C19.9718 12.0191 20.7255 12.3555 21.2816 12.9523C21.8377 13.5492 22.1512 14.3579 22.1535 15.202V20.7764" stroke="#484848" stroke-width="2.58997" stroke-linecap="round" stroke-linejoin="round"/>
<path id="Vector_3" d="M2.86035 20.7763V20.3781C2.86121 20.0616 2.97875 19.7583 3.18731 19.5345C3.39586 19.3107 3.67848 19.1845 3.97342 19.1836H21.0405C21.3354 19.1845 21.618 19.3107 21.8266 19.5345C22.0351 19.7583 22.1527 20.0616 22.1535 20.3781V20.7763" stroke="#484848" stroke-width="1.15831" stroke-linecap="round" stroke-linejoin="round"/>
<path id="Vector_4" d="M5.82812 12.0165V11.2201C5.82923 10.7981 5.98594 10.3937 6.26402 10.0952C6.5421 9.7968 6.91895 9.62862 7.31222 9.62744H11.0224C11.4157 9.62862 11.7926 9.7968 12.0706 10.0952C12.3487 10.3937 12.5054 10.7981 12.5065 11.2201V12.0165" stroke="#484848" stroke-width="2.58997" stroke-linecap="round" stroke-linejoin="round"/>
<path id="Vector_5" d="M12.5068 12.0165V11.2201C12.5079 10.7981 12.6646 10.3937 12.9427 10.0952C13.2208 9.7968 13.5977 9.62862 13.9909 9.62744H17.7012C18.0944 9.62862 18.4713 9.7968 18.7493 10.0952C19.0274 10.3937 19.1841 10.7981 19.1852 11.2201V12.0165" stroke="#484848" stroke-width="2.58997" stroke-linecap="round" stroke-linejoin="round"/>
</g>
</svg>
