<svg width="16" height="16" viewBox="0 0 16 16" fill="none" xmlns="http://www.w3.org/2000/svg">
<path d="M14.6663 14.6666L13.333 13.3333M7.66634 14C8.49805 14 9.32161 13.8362 10.09 13.5179C10.8584 13.1996 11.5566 12.7331 12.1447 12.145C12.7328 11.5569 13.1993 10.8587 13.5176 10.0903C13.8359 9.32191 13.9997 8.49835 13.9997 7.66665C13.9997 6.83494 13.8359 6.01138 13.5176 5.24298C13.1993 4.47459 12.7328 3.77641 12.1447 3.1883C11.5566 2.6002 10.8584 2.13369 10.09 1.81541C9.32161 1.49713 8.49805 1.33331 7.66634 1.33331C5.98664 1.33331 4.37573 2.00057 3.188 3.1883C2.00027 4.37603 1.33301 5.98694 1.33301 7.66665C1.33301 9.34635 2.00027 10.9573 3.188 12.145C4.37573 13.3327 5.98664 14 7.66634 14V14Z" stroke="#656161" stroke-width="1.5" stroke-linecap="round" stroke-linejoin="round"/>
</svg>
